<svg width="1436" height="112" viewBox="0 0 1436 112" fill="none" xmlns="http://www.w3.org/2000/svg">
<mask id="mask0_237_209" style="mask-type:alpha" maskUnits="userSpaceOnUse" x="0" y="30" width="1440" height="134">
<path d="M0 66.2139L98.4436 44.3452C158.162 31.0792 220.276 33.2488 278.923 50.6493L309.106 59.6045C362.021 75.3042 418.536 73.9339 470.628 55.6884V55.6884C523.488 37.1736 580.883 36.0425 634.432 52.4603L653.248 58.2293C707.452 74.8479 765.44 74.5024 819.442 57.2389V57.2389C866.623 42.1558 916.977 39.9487 965.297 50.8456L994.521 57.436C1053.03 70.6318 1114.06 67.4084 1170.86 48.1213V48.1213C1221.5 30.9222 1275.61 26.4654 1328.39 35.1445L1440 53.4973V164H0V66.2139Z" fill="url(#paint0_linear_237_209)"/>
</mask>
<g mask="url(#mask0_237_209)">
<path d="M0 43.4118L98.4436 21.5431C158.162 8.27703 220.276 10.4467 278.923 27.8472L309.106 36.8024C362.021 52.5021 418.536 51.1318 470.628 32.8862V32.8862C523.488 14.3715 580.883 13.2404 634.432 29.6582L653.248 35.4272C707.452 52.0458 765.44 51.7002 819.442 34.4368V34.4368C866.623 19.3537 916.977 17.1466 965.297 28.0435L994.521 34.6338C1053.03 47.8297 1114.06 44.6063 1170.86 25.3191V25.3191C1221.5 8.12012 1275.61 3.66323 1328.39 12.3424L1440 30.6952V141.198H0V43.4118Z" fill="#91C6F7" fill-opacity="0.55"/>
</g>
<mask id="mask1_237_209" style="mask-type:alpha" maskUnits="userSpaceOnUse" x="0" y="10" width="1440" height="130">
<path d="M0 30.1618L62.0849 18.7794C129.647 6.39271 199.037 8.05962 265.927 23.6762L316.611 35.5092C383.901 51.2191 454.053 49.8307 520.668 31.4707V31.4707C588.279 12.8361 659.517 11.6889 727.693 28.1368L786.915 42.4243C833.716 53.7152 881.902 58.1877 929.981 55.7032L1033.01 50.3791C1060.62 48.9523 1088.07 45.2381 1115.06 39.2745L1169.21 27.313C1241.5 11.3437 1316.44 11.6267 1388.6 28.1418L1440 39.9037V135.51L0 139.444V30.1618Z" fill="url(#paint1_linear_237_209)" fill-opacity="0.5"/>
</mask>
<g mask="url(#mask1_237_209)">
<rect x="-4" y="7.89307" width="1440" height="180.663" fill="#91C6F7"/>
</g>
<defs>
<linearGradient id="paint0_linear_237_209" x1="1440" y1="92.9625" x2="-4.62807e-07" y2="92.9625" gradientUnits="userSpaceOnUse">
<stop stop-color="#0052D4"/>
<stop offset="0.5" stop-color="#4364F7"/>
<stop offset="1" stop-color="#6FB1FC"/>
</linearGradient>
<linearGradient id="paint1_linear_237_209" x1="1737" y1="70.1604" x2="-128" y2="70.1604" gradientUnits="userSpaceOnUse">
<stop stop-color="#0052D4"/>
<stop offset="0.5" stop-color="#4364F7"/>
<stop offset="1" stop-color="#6FB1FC"/>
</linearGradient>
</defs>
</svg>
